<?xml version="1.0" standalone="no"?>
<!DOCTYPE svg PUBLIC "-//W3C//DTD SVG 20010904//EN"
 "http://www.w3.org/TR/2001/REC-SVG-20010904/DTD/svg10.dtd">
<svg version="1.0" xmlns="http://www.w3.org/2000/svg"
 width="748.000000pt" height="751.000000pt" viewBox="0 0 748.000000 751.000000"
 preserveAspectRatio="xMidYMid meet">

<g transform="translate(0.000000,751.000000) scale(0.100000,-0.100000)"
fill="#009688" stroke="none">
<path d="M1055 7250 c-95 -7 -245 -52 -320 -95 -184 -106 -309 -263 -387 -485
l-33 -95 -3 -2733 c-2 -2977 -6 -2788 54 -2938 81 -207 285 -403 483 -468 184
-61 -17 -57 2926 -54 l2690 3 85 23 c305 84 508 282 603 587 l22 70 3 2709 c2
2402 1 2717 -13 2783 -29 140 -84 272 -150 363 -46 63 -150 161 -215 202 -61
40 -198 99 -275 119 -41 11 -541 13 -2715 15 -1466 0 -2705 -2 -2755 -6z
m5245 -1016 c88 -42 152 -102 189 -176 28 -56 31 -70 31 -158 0 -56 -6 -117
-15 -146 -32 -107 -150 -208 -271 -232 -32 -7 -102 -12 -156 -12 -121 0 -177
-13 -245 -56 -136 -86 -186 -230 -187 -539 -1 -107 -5 -183 -11 -187 -5 -4
-42 -8 -82 -8 -201 0 -510 -99 -707 -225 -30 -19 -58 -35 -62 -35 -3 0 -4 147
-1 328 5 341 15 438 66 642 65 261 225 501 426 637 218 147 442 204 785 200
173 -2 176 -3 240 -33z m-810 -24 c-20 -13 -33 -13 -25 0 3 6 14 10 23 10 15
0 15 -2 2 -10z m-733 -1237 c-3 -10 -5 -2 -5 17 0 19 2 27 5 18 2 -10 2 -26 0
-35z m-1477 -347 c123 -26 261 -128 313 -233 42 -82 64 -159 276 -948 89 -335
213 -815 234 -907 6 -27 14 -48 17 -48 3 0 21 62 39 138 18 75 51 202 71 282
21 80 50 192 65 250 91 361 168 590 243 730 142 265 317 435 567 550 103 47
156 64 285 91 95 20 136 22 430 23 318 1 326 1 383 -22 151 -61 249 -244 217
-404 -27 -139 -110 -238 -236 -284 -40 -14 -98 -19 -309 -25 -283 -8 -333 -16
-436 -70 -120 -64 -228 -177 -290 -303 -37 -76 -146 -398 -208 -616 -29 -105
-45 -158 -205 -675 -154 -499 -187 -577 -284 -666 -164 -152 -380 -181 -575
-76 -42 22 -77 52 -114 97 -85 101 -121 189 -197 465 -13 50 -52 187 -86 305
-79 277 -134 485 -226 849 -40 162 -75 296 -77 298 -2 2 -16 -45 -31 -104
-100 -394 -172 -664 -297 -1118 -151 -552 -172 -608 -266 -706 -41 -43 -80
-71 -140 -101 -73 -36 -94 -42 -166 -46 -203 -10 -388 100 -489 293 -36 71
-137 366 -397 1165 -78 239 -184 561 -236 715 -182 543 -198 599 -198 701 -1
81 3 98 31 158 39 84 125 171 207 212 55 27 69 29 170 29 99 0 115 -3 165 -27
106 -52 184 -141 228 -260 12 -31 43 -143 71 -250 27 -106 61 -229 75 -273 13
-44 48 -168 76 -275 28 -107 76 -283 105 -390 30 -107 58 -213 64 -235 23
-100 110 -428 115 -432 5 -6 6 -3 55 197 23 91 57 224 76 295 19 72 60 227 90
345 31 118 69 265 85 325 16 61 59 223 96 360 36 138 77 279 91 314 62 164
169 261 335 305 68 19 107 19 188 2z m2360 -1939 c0 -824 -2 -961 -15 -1012
-86 -329 -478 -444 -711 -208 -73 74 -108 149 -112 238 -3 64 2 89 66 290 39
121 77 247 87 280 9 33 33 116 55 185 21 69 64 208 95 310 169 554 197 625
291 728 41 46 76 72 136 102 44 22 87 40 94 40 12 0 14 -148 14 -953z m-3203
541 c-3 -7 -5 -2 -5 12 0 14 2 19 5 13 2 -7 2 -19 0 -25z m950 -710 c-3 -8 -6
-5 -6 6 -1 11 2 17 5 13 3 -3 4 -12 1 -19z m1948 -1198 c4 -6 -6 -10 -22 -10
-22 0 -25 2 -13 10 19 12 27 12 35 0z"/>
</g>
</svg>
