<svg width="378" height="353" viewBox="0 0 378 353" fill="none" xmlns="http://www.w3.org/2000/svg">
<rect x="84" y="27.3594" width="210" height="141" rx="35" fill="#009688"/>
<rect x="84" y="27.3594" width="210" height="141" rx="35" fill="#009688"/>
<rect x="84" y="27.3594" width="210" height="141" rx="35" fill="#009688"/>
<rect y="196.172" width="210" height="141" rx="35" transform="rotate(-59.9711 0 196.172)" fill="#009688"/>
<rect x="105" y="352.725" width="210" height="141" rx="35" transform="rotate(-120 105 352.725)" fill="#009688"/>
<rect x="255" y="266.725" width="210" height="141" rx="35" transform="rotate(-120 255 266.725)" fill="#009688"/>
<rect x="150" y="282.172" width="210" height="141" rx="35" transform="rotate(-59.9711 150 282.172)" fill="#009688"/>
<rect x="84" y="199.359" width="210" height="141" rx="35" fill="#009688"/>
<circle cx="189" cy="173.359" r="54" fill="#009688"/>
<path d="M109.835 79.7182C114.939 71.3636 126.822 70.693 132.833 78.4203L184.283 144.56C191.298 153.578 185.14 166.749 173.722 167.148L132.417 168.592H81.9425C71.0138 168.592 64.2992 156.629 69.9916 147.3L74.2929 140.251L88.7038 114.311L109.835 79.7182Z" fill="white"/>
<path d="M239.597 70.4682C250.467 70.3835 257.283 82.1792 251.781 91.5541L191.758 193.825C186.272 203.173 172.701 203.009 167.442 193.532L111.189 92.1676C106.034 82.8784 112.698 71.4575 123.322 71.3747L239.597 70.4682Z" fill="white"/>
<path d="M143.452 103.069C148.819 93.6213 162.433 93.6213 167.799 103.069L220.291 195.485C225.592 204.818 218.851 216.4 208.117 216.4H103.134C92.401 216.4 85.6599 204.818 90.961 195.485L143.452 103.069Z" fill="white"/>
<path d="M315.904 180.814C321.31 190.148 314.575 201.831 303.789 201.831L185.01 201.831C174.225 201.831 167.49 190.148 172.895 180.814L232.285 78.2721C237.678 68.9608 251.122 68.9608 256.515 78.2721L315.904 180.814Z" fill="white"/>
<path d="M250.704 154.776C261.481 154.776 268.217 166.443 262.829 175.776L204.225 277.281C198.836 286.615 185.365 286.615 179.976 277.281L121.372 175.776C115.983 166.443 122.719 154.776 133.496 154.776L250.704 154.776Z" fill="white"/>
<path d="M270.591 275.694C265.262 285.081 251.762 285.16 246.324 275.836L224.101 237.736L201.096 196.139C195.936 186.808 202.685 175.364 213.348 175.364L303.507 175.364C314.239 175.364 320.98 186.943 315.681 196.276L270.591 275.694Z" fill="white"/>
<path d="M62.1267 168.079H164.234C175.297 168.079 188.749 175.857 194.256 185.438L219.363 229.118L241.866 268.75C247.237 278.21 242.814 285.857 231.93 285.926L150.613 286.446C139.551 286.516 126.017 278.741 120.466 269.126L62.1267 168.079Z" fill="#009688"/>
</svg>
